# xmcd
#
# Track frame offsets: 
#        150
#        16376
#        34617
#        51859
#        67047
#        83132
#        97728
#        112398
#        124516
#        143440
#        161584
#        178024
#        199188
#        210902
#        224170
#        236992
#        255643
#        268403
#        285710
#        298337
#        313866
#        328609
#        346483
#        361429
#
# Disc length: 5022 seconds
#
# Revision: 0
# Processed by: cddbd v1.5.2PL0 Copyright (c) Steve Scherf et al.
# Submitted via: ExactAudioCopyFreeDBPlugin 1.0
#
DISCID=84139c18
DTITLE=Various Artist - Purple Velvet Souvenir Sampler
DYEAR=2015
DGENRE=Blues
TTITLE0=Sookee - Cupcakes and Elektrotechnik
TTITLE1=Lex LaFoy - Honey Bass
TTITLE2=Shirlette Ammons - Sexy Cerebellum
TTITLE3=Carmel Zoum - Mad
TTITLE4=Spoke P Kaye - A Bullet For John Doe
TTITLE5=Lady Lazy - Kampf ohne Anlass
TTITLE6=Irie Révoltés - Rebelles
TTITLE7=Tice feat. Sookee - Die Frage stellt sich nicht
TTITLE8=Mental Movement - Großstadt
TTITLE9=Icarus - Neptun
TTITLE10=Presslufthanna - Schlussstrich
TTITLE11=Sookee feat. Spezial-K - SLPC (Beat2.0 Souvenir Remix)
TTITLE12=Yasmo - Die Gretchenfrage
TTITLE13=Ebow - Vay
TTITLE14=Taiga Trece - Kündigung
TTITLE15=Ket - Verrückt
TTITLE16=Nazz - Weil wir leben
TTITLE17=Mantiz - NMY
TTITLE18=Cossu - I Have Dream
TTITLE19=Msoke - Murder Time
TTITLE20=Temmy Ton - Steh auf
TTITLE21=Yansn - Good Vibez
TTITLE22=Alice Dee - Halluzination
TTITLE23=Refpolk u.a. - Straßennamen
EXTD=
EXTT0=
EXTT1=
EXTT2=
EXTT3=
EXTT4=
EXTT5=
EXTT6=
EXTT7=
EXTT8=
EXTT9=
EXTT10=
EXTT11=
EXTT12=
EXTT13=
EXTT14=
EXTT15=
EXTT16=
EXTT17=
EXTT18=
EXTT19=
EXTT20=
EXTT21=
EXTT22=
EXTT23=
PLAYORDER=
